<?xml version="1.0" encoding="utf-8"?>
<!-- Generator: Adobe Illustrator 26.0.3, SVG Export Plug-In . SVG Version: 6.00 Build 0)  -->
<svg version="1.1" id="Camada_1" xmlns="http://www.w3.org/2000/svg" xmlns:xlink="http://www.w3.org/1999/xlink" x="0px" y="0px"
	 viewBox="0 0 876 899" style="enable-background:new 0 0 876 899;" xml:space="preserve">
<style type="text/css">
	.st0{fill:#F9DD3F;}
	.st1{fill:#F7C114;}
	.st2{fill:#2B9B67;}
	.st3{fill:#007849;}
	.st4{fill:#035D38;}
	.st5{display:none;}
	.st6{display:inline;fill:#F9DD3F;}
	.st7{display:inline;fill:#F7C114;}
	.st8{display:inline;fill:#2B9B67;}
	.st9{display:inline;fill:#007849;}
	.st10{display:inline;fill:#035D38;}
</style>
<g>
	<path class="st0" d="M0.15,899.11V-0.11l22.41,0C44.59,45.57,78.7,109.03,128.44,178.05c69.85,96.92,135.77,156.57,203.29,217.68
		c93.6,84.7,188.34,153.43,241.41,191.93c18.21,13.21,57.65,41.52,108,84.26c40.07,34.02,72.08,61.42,108,102.99
		c23.65,27.38,55.4,68.3,86.82,124.19"/>
	<path class="st1" d="M0.03,103.15c79.5,116.97,157.22,202.81,217.35,262.15c36.04,35.56,107.19,105.78,209.65,177.89
		c42.01,29.57,70.68,46.36,129.18,91.28c51.74,39.74,90.18,69.51,133.41,114.69c31.39,32.8,73.03,81.8,114.35,149.94H0.15
		L0.03,103.15z"/>
	<path class="st2" d="M0.03,530.32c2.9,60.99,18.86,105.09,29.94,129.91c9.29,20.81,20.22,44.67,43.41,66.71
		c21.25,20.2,42.12,28.71,58.24,35.11c35.84,14.22,65.09,15.37,98.47,16.38c32.73,0.99,59.94-1.68,114.35-7.02
		c37.89-3.72,50.74-6.13,78.35-5.85c22.4,0.23,43.6,0.45,69.88,7.02c38.31,9.58,64.92,27.05,80.47,37.45
		c41.86,27.99,70.52,62.17,88.94,89.08H0.15L0.03,530.32z"/>
	<path class="st3" d="M0.15,681.29c5.13,20.6,18.83,63.35,55.24,88.94c18.99,13.35,36.57,16.5,70.94,22.24
		c14.62,2.44,52.25,7.9,116.47,3.51c64.96-4.44,66.98-12.79,104.82-9.36c47.26,4.28,81.08,20.66,91.06,25.75
		c37.4,19.07,61.84,43.64,74.12,56.18c11.44,11.68,20.26,22.45,26.47,30.57H0.15V681.29z"/>
	<path class="st4" d="M432.32,899.11c-12.48-19.59-32.11-43.55-61.41-61c-36.1-21.5-70.53-23.39-92.12-24.58
		c-4.11-0.23-10.11-0.45-54,2.34c-48.45,3.08-72.77,5.36-81.53,5.85c-31.5,1.77-78.21-7.36-143.24-57.35l0.12,134.73H432.32z"/>
</g>
<g class="st5">
	<path class="st6" d="M821.82,899.71c6.06-21.66,12.49-51.82,14.12-88.31c0.49-10.98,1.35-40.42-4.24-78.02
		c-9.97-67.13-33.72-114.85-48.71-144.35c-22.72-44.72-44.92-73.84-69.18-105.33c-51.62-67.01-98.79-110.42-145.41-152.93
		C513.25,280.48,464.63,242.98,443.47,227c-39.37-29.74-52.93-37.3-100.94-74.9c-56.79-44.47-79.76-66.72-93.18-80.37
		c-27.32-27.78-47.81-53.23-61.41-71.27l688.06,0v899.25H821.82z"/>
	<path class="st7" d="M850.41,899.71c7.34-26.49,15.56-65.16,16.94-112.49c2.41-82.48-17.3-144.42-25.41-167.36
		c-12.08-34.14-28.6-67.13-62.47-115.87c-30.59-44.02-100.4-136.95-231.88-242.27c-75.08-60.14-112.93-90.46-165.18-125.23
		c-19.42-12.93-62.81-41.1-106.94-93.63c-14.25-16.96-24.88-32.07-31.76-42.4H876v899.25H850.41z"/>
	<path class="st8" d="M876,328.43c-14.59-11.11-33.28-28.34-49.94-53.84c-4.9-7.49-18.62-29.48-28.59-62.03
		c-11.54-37.7-3.86-43.24-13.76-74.9c-3.94-12.61-16.45-51.03-48.71-77.24c-21.17-17.2-41.16-21.28-68.82-26.92
		c-46.98-9.58-88.39-4.79-119.65-1.17c-22.57,2.61-37.6,5.84-65.65,5.85c-18.37,0.01-33.49-0.08-51.88-4.68
		c-14.96-3.74-38.65-12.1-64.59-33.04H876V328.43z"/>
	<path class="st9" d="M876,268.74c-11.34-9.61-25.84-24.32-38.29-45.64c-15-25.69-21.17-50.94-24.35-64.37
		c-7.07-29.83-4.06-39.02-13.76-63.2c-3.17-7.89-8.73-21.46-19.55-34.85c-17.1-21.17-37.22-29.38-52.45-35.37
		c-42.51-16.72-81.65-13.47-110.71-11.05c-15.03,1.25-20.26,2.69-49.41,5.2c-37.35,3.22-48.78,2.57-60.24,0
		c-18.92-4.24-33.33-12.69-42.35-18.99H876V268.74z"/>
	<path class="st10" d="M555.71,0.46c4.69,1.78,11.45,3.99,19.76,5.47c10.56,1.88,18.86,1.74,24,1.56
		c28.24-0.97,37.49-5.55,64.94-7.03c12.6-0.68,22.39-0.34,32.47,0c19.51,0.67,29.27,1,40.47,3.39c13.78,2.94,30.35,6.48,46.59,20.29
		c12.8,10.89,19.61,23.24,23.06,29.65c8.72,16.18,11.77,31.08,13.65,40.57c3.66,18.56,1.01,20.88,4.71,35.37
		c3.5,13.72,8.71,22.71,16.47,35.89c7.19,12.2,18.16,28.69,34.18,46.29V0.46L555.71,0.46z"/>
</g>
</svg>
