<?xml version="1.0" encoding="utf-8"?>
<!-- Generator: Adobe Illustrator 26.0.3, SVG Export Plug-In . SVG Version: 6.00 Build 0)  -->
<svg version="1.1" id="Camada_1" xmlns="http://www.w3.org/2000/svg" xmlns:xlink="http://www.w3.org/1999/xlink" x="0px" y="0px"
	 viewBox="0 0 321 902" style="enable-background:new 0 0 321 902;" xml:space="preserve">
<style type="text/css">
	.st0{fill:#F9DD3F;}
	.st1{fill:#F7C114;}
</style>
<path class="st0" d="M-0.43,0.82c32.66,17.08,59.3,34.25,79.2,48.15c20.86,14.58,38.83,27.25,61,48.15
	c16.89,15.92,36.86,34.97,57.79,66.03c14.6,21.66,34.37,51.56,47.09,97.98c11.78,42.97,11.94,79.76,11.89,105.16
	c-0.07,33.05-3.61,58.61-5.71,73.37c-3.02,21.19-8.67,48.78-19.98,103.94c-2.78,13.57-4.89,23.64-6.66,38.52
	c-1.31,11.06-3.13,30.66-2.38,58.08c1.2,43.47,8.17,81.24,12.84,103.94c7.94,38.53,21.57,93.31,45.66,158.21h39.24V0.82H-0.43z"/>
<path class="st1" d="M243.5,651.98c2.35,25.79,6.36,47.22,11.18,72.91c1.69,9.04,3.41,18.12,6.13,30.26
	c1.14,5.08,6.49,28.64,16.23,60.07c5.63,18.17,13.16,40.33,23.08,65.11l9.74,22.02h10.46V0.82H44.06C49.03,2.63,54,4.44,58.97,6.24
	c2.94,1.24,7.15,3.1,12.14,5.59c18.31,9.14,31.81,19.14,44.72,29.35c28.26,22.35,43.7,34.57,63.83,55.94
	c16.13,17.13,31.73,33.69,48.33,60.99c8.26,13.58,24.5,40.75,36.06,81.62c12.92,45.69,13.06,83.97,12.98,105.47
	c-0.15,44.07-7.12,80.45-12.26,107.3c-3.9,20.34-5.72,24.96-11.54,55.94c-6.49,34.54-9.77,52.25-11.18,73.83
	C240.04,612.97,242.13,636.93,243.5,651.98z"/>
</svg>
