<?xml version="1.0" encoding="utf-8"?>
<!-- Generator: Adobe Illustrator 26.0.3, SVG Export Plug-In . SVG Version: 6.00 Build 0)  -->
<svg version="1.1" id="Camada_1" xmlns="http://www.w3.org/2000/svg" xmlns:xlink="http://www.w3.org/1999/xlink" x="0px" y="0px"
	 viewBox="0 0 321 902" style="enable-background:new 0 0 321 902;" xml:space="preserve">
<style type="text/css">
	.st0{display:none;fill:#F9DD3F;}
	.st1{display:none;fill:#F7C114;}
	.st2{fill:#F9DD3F;}
	.st3{fill:#F7C114;}
</style>
<path class="st0" d="M-0.43,0.82c32.66,17.08,59.3,34.25,79.2,48.15c20.86,14.58,38.83,27.25,61,48.15
	c16.89,15.92,36.86,34.97,57.79,66.03c14.6,21.66,34.37,51.56,47.09,97.98c11.78,42.97,11.94,79.76,11.89,105.16
	c-0.07,33.05-3.61,58.61-5.71,73.37c-3.02,21.19-8.67,48.78-19.98,103.94c-2.78,13.57-4.89,23.64-6.66,38.52
	c-1.31,11.06-3.13,30.66-2.38,58.08c1.2,43.47,8.17,81.24,12.84,103.94c7.94,38.53,21.57,93.31,45.66,158.21h39.24V0.82H-0.43z"/>
<path class="st1" d="M243.5,651.98c2.35,25.79,6.36,47.22,11.18,72.91c1.69,9.04,3.41,18.12,6.13,30.26
	c1.14,5.08,6.49,28.64,16.23,60.07c5.63,18.17,13.16,40.33,23.08,65.11l9.74,22.02h10.46V0.82H44.06C49.03,2.63,54,4.44,58.97,6.24
	c2.94,1.24,7.15,3.1,12.14,5.59c18.31,9.14,31.81,19.14,44.72,29.35c28.26,22.35,43.7,34.57,63.83,55.94
	c16.13,17.13,31.73,33.69,48.33,60.99c8.26,13.58,24.5,40.75,36.06,81.62c12.92,45.69,13.06,83.97,12.98,105.47
	c-0.15,44.07-7.12,80.45-12.26,107.3c-3.9,20.34-5.72,24.96-11.54,55.94c-6.49,34.54-9.77,52.25-11.18,73.83
	C240.04,612.97,242.13,636.93,243.5,651.98z"/>
<path class="st2" d="M218.5,0.24c-13.15,9.25-32.21,25.12-50.49,50.91c-20.25,28.57-29.93,55.77-36.06,73.37
	c-13.73,39.42-17.63,71.64-21.64,106.38c-7,60.76-5.23,108.48-3.61,147.65c1.82,43.97,5.67,78.08,8.66,104.55
	c1.13,10.05,2.55,21.8,14.43,105.47c11.81,83.2,12.44,85.84,13.7,100.88c2.25,26.65,5.33,65.2,1.44,114.64
	c-3.09,39.24-9.54,72.31-15.87,97.68H5V0.24H218.5z"/>
<path class="st3" d="M172.03,0.24C161.24,9.51,146.01,24.84,132,48.39c-8.67,14.57-13.78,27.09-18.39,38.52
	c-3.93,9.73-13.2,33.82-21.64,71.53c-2.09,9.36-10.46,47.83-14.07,103.17c-2.69,41.35-1.43,72.17,0,104.55
	c2.09,47.41,6.25,82.49,10.82,121.06c5.77,48.64,12.65,93.08,16.35,116.93c6.57,42.4,8.58,50.85,10.58,73.98
	c1.44,16.69,3.64,49.77,1.44,91.1c-2.09,39.18-7.34,70.97-12.98,105.16c-1.89,11.43-3.6,20.87-4.81,27.37H64.68H0V662.24V211.02
	V0.24L172.03,0.24z"/>
</svg>
